<svg class="railroad-diagram" width="384.5" height="71" viewBox="0 0 384.5 71">
<g transform="translate(.5 .5)">
<g>
<path d="M20 30v20m10 -20v20m-10 -10h20"></path>
</g>
<g>
<path d="M40 40h0"></path>
<path d="M159.5 40h0"></path>
<path d="M40 40a10 10 0 0 0 10 -10v0a10 10 0 0 1 10 -10"></path>
<g>
<path d="M60 20h79.5"></path>
</g>
<path d="M139.5 20a10 10 0 0 1 10 10v0a10 10 0 0 0 10 10"></path>
<path d="M40 40h20"></path>
<g class="non-terminal">
<path d="M60 40h0"></path>
<path d="M139.5 40h0"></path>
<rect x="60" y="29" width="79.5" height="22"></rect>
<text x="99.75" y="44">subject</text>
</g>
<path d="M139.5 40h20"></path>
</g>
<path d="M159.5 40h10"></path>
<g class="terminal">
<path d="M169.5 40h0"></path>
<path d="M223.5 40h0"></path>
<rect x="169.5" y="29" width="54" height="22" rx="10" ry="10"></rect>
<text x="196.5" y="44">verb</text>
</g>
<path d="M223.5 40h10"></path>
<g>
<path d="M233.5 40h0"></path>
<path d="M344.5 40h0"></path>
<path d="M233.5 40a10 10 0 0 0 10 -10v0a10 10 0 0 1 10 -10"></path>
<g>
<path d="M253.5 20h71"></path>
</g>
<path d="M324.5 20a10 10 0 0 1 10 10v0a10 10 0 0 0 10 10"></path>
<path d="M233.5 40h20"></path>
<g class="non-terminal">
<path d="M253.5 40h0"></path>
<path d="M324.5 40h0"></path>
<rect x="253.5" y="29" width="71" height="22"></rect>
<text x="289" y="44">object</text>
</g>
<path d="M324.5 40h20"></path>
</g>
<path d="M 344.5 40 h 20 m -10 -10 v 20 m 10 -20 v 20"></path>
</g>
</svg>
